<svg width="14" height="26" viewBox="0 0 14 26" fill="none" xmlns="http://www.w3.org/2000/svg">
<path d="M13.4995 2.70827V0.541675C13.4995 0.320577 13.3651 0.121162 13.1599 0.0391517C13.0943 0.0126951 13.0255 0 12.9579 0C12.8129 0 12.6711 0.0581944 12.5664 0.167169L0.649942 12.6253C0.450019 12.8348 0.450019 13.1648 0.649942 13.3743L12.5664 25.8324C12.7198 25.9922 12.9547 26.044 13.16 25.9604C13.3652 25.8784 13.4996 25.679 13.4996 25.4579V23.2913C13.4996 23.1527 13.4467 23.0194 13.3515 22.9189L3.95382 12.9998L13.3514 3.0807C13.4466 2.9802 13.4995 2.8469 13.4995 2.70827Z" fill="#333333"/>
</svg>
