<svg width="28" height="24" viewBox="0 0 28 24" fill="none" xmlns="http://www.w3.org/2000/svg">
<path d="M14.0451 0.72583C14.0168 0.72583 13.9902 0.7276 13.9619 0.73291C13.9336 0.73999 13.9053 0.74707 13.8769 0.757691C13.8504 0.77008 13.8256 0.784241 13.7991 0.800171C13.7867 0.809021 13.769 0.812561 13.7566 0.823181L8.15624 5.45886V3.91718C8.15624 3.66583 7.95446 3.46405 7.70312 3.46405C7.45177 3.46405 7.24999 3.66583 7.24999 3.91718V6.1828C7.24999 6.18988 7.25353 6.19696 7.2553 6.20581L6.34374 6.95807V2.10291C6.34374 1.85333 6.14196 1.64978 5.89061 1.64978C5.63927 1.64978 5.43749 1.85333 5.43749 2.10291V7.54218C5.43749 7.59174 5.45165 7.63953 5.46581 7.68555L0.615957 11.6982C0.423025 11.8575 0.398244 12.1425 0.555776 12.3354C0.646047 12.4434 0.777029 12.5 0.90624 12.5C1.0089 12.5 1.11156 12.4664 1.19652 12.3956L2.71874 11.1353V22.4688H1.35936C1.10802 22.4688 0.90624 22.6723 0.90624 22.9219C0.90624 23.1714 1.10802 23.375 1.35936 23.375H26.7344C26.9857 23.375 27.1875 23.1714 27.1875 22.9219C27.1875 22.6723 26.9857 22.4688 26.7344 22.4688H25.375V11.1353L26.8972 12.3956C26.9822 12.4664 27.0848 12.5 27.1875 12.5C27.3167 12.5 27.4459 12.4434 27.5362 12.3372C27.6955 12.1425 27.6689 11.8575 27.476 11.6982L14.3354 0.823181C14.323 0.812561 14.3071 0.809021 14.2929 0.800171C14.2663 0.782471 14.2416 0.768311 14.2115 0.757691C14.1849 0.74707 14.1601 0.73999 14.1318 0.73291C14.1035 0.7276 14.0752 0.72583 14.0451 0.72583ZM14.0469 1.75952L24.4687 10.3848V17.9375H17.2187V14.3125C17.2187 13.8134 16.8116 13.4062 16.3125 13.4062H11.7812C11.2821 13.4062 10.875 13.8134 10.875 14.3125V17.9375H3.62499V10.3848L14.0469 1.75952ZM14.0469 6.15625C12.7972 6.15625 11.7812 7.17224 11.7812 8.42188C11.7812 9.67151 12.7972 10.6875 14.0469 10.6875C15.2965 10.6875 16.3125 9.67151 16.3125 8.42188C16.3125 7.17224 15.2965 6.15625 14.0469 6.15625ZM14.0469 6.96869C14.8487 6.96869 15.5001 7.62006 15.5001 8.42188C15.5001 9.22369 14.8487 9.87506 14.0469 9.87506C13.245 9.87506 12.5937 9.22369 12.5937 8.42188C12.5937 7.62006 13.245 6.96869 14.0469 6.96869ZM11.7812 14.3125H16.3125V22.4457H11.7812V14.3125ZM14.9531 17.4844C14.7018 17.4844 14.5 17.6879 14.5 17.9375V18.8438C14.5 19.0933 14.7018 19.2969 14.9531 19.2969C15.2045 19.2969 15.4062 19.0933 15.4062 18.8438V17.9375C15.4062 17.6879 15.2045 17.4844 14.9531 17.4844ZM3.62499 18.8438H10.875V22.4688H3.62499V18.8438ZM17.2187 18.8438H24.4687V22.4688H17.2187V18.8438ZM4.98436 19.75C4.73302 19.75 4.53124 19.9536 4.53124 20.2031V21.1094C4.53124 21.3589 4.73302 21.5625 4.98436 21.5625C5.23571 21.5625 5.43749 21.3589 5.43749 21.1094V20.2031C5.43749 19.9536 5.23571 19.75 4.98436 19.75ZM7.24999 19.75C6.99865 19.75 6.79686 19.9536 6.79686 20.2031V21.1094C6.79686 21.3589 6.99865 21.5625 7.24999 21.5625C7.50133 21.5625 7.70312 21.3589 7.70312 21.1094V20.2031C7.70312 19.9536 7.50133 19.75 7.24999 19.75ZM9.51562 19.75C9.26427 19.75 9.06249 19.9536 9.06249 20.2031V21.1094C9.06249 21.3589 9.26427 21.5625 9.51562 21.5625C9.76696 21.5625 9.96874 21.3589 9.96874 21.1094V20.2031C9.96874 19.9536 9.76696 19.75 9.51562 19.75ZM18.5781 19.75C18.3268 19.75 18.125 19.9536 18.125 20.2031V21.1094C18.125 21.3589 18.3268 21.5625 18.5781 21.5625C18.8295 21.5625 19.0312 21.3589 19.0312 21.1094V20.2031C19.0312 19.9536 18.8295 19.75 18.5781 19.75ZM20.8437 19.75C20.5924 19.75 20.3906 19.9536 20.3906 20.2031V21.1094C20.3906 21.3589 20.5924 21.5625 20.8437 21.5625C21.0951 21.5625 21.2969 21.3589 21.2969 21.1094V20.2031C21.2969 19.9536 21.0951 19.75 20.8437 19.75ZM23.1094 19.75C22.858 19.75 22.6562 19.9536 22.6562 20.2031V21.1094C22.6562 21.3589 22.858 21.5625 23.1094 21.5625C23.3607 21.5625 23.5625 21.3589 23.5625 21.1094V20.2031C23.5625 19.9536 23.3607 19.75 23.1094 19.75Z" fill="#333333"/>
</svg>
