<svg width="32" height="32" viewBox="0 0 32 32" fill="none" xmlns="http://www.w3.org/2000/svg">
<path d="M24.7111 19.5794C24.0969 18.9399 23.3561 18.598 22.571 18.598C21.7922 18.598 21.045 18.9335 20.4055 19.573L18.4047 21.5675C18.2401 21.4789 18.0754 21.3966 17.9172 21.3143C17.6892 21.2003 17.4739 21.0927 17.2903 20.9787C15.4161 19.7883 13.7129 18.2371 12.0793 16.2299C11.2879 15.2295 10.756 14.3874 10.3698 13.5326C10.889 13.0577 11.3702 12.5639 11.8387 12.089C12.016 11.9117 12.1933 11.7281 12.3706 11.5508C13.7002 10.2211 13.7002 8.4989 12.3706 7.16924L10.642 5.44068C10.4457 5.2444 10.2431 5.04179 10.0532 4.83917C9.67327 4.44661 9.27437 4.04138 8.86281 3.66147C8.24864 3.05363 7.51416 2.73071 6.74169 2.73071C5.96923 2.73071 5.22208 3.05363 4.58891 3.66147C4.58258 3.66781 4.58258 3.66781 4.57625 3.67414L2.42347 5.84591C1.61301 6.65637 1.1508 7.64412 1.04949 8.79016C0.897531 10.639 1.44206 12.3612 1.85995 13.4883C2.88569 16.2552 4.41796 18.8196 6.7037 21.5675C9.47699 24.879 12.8138 27.494 16.6255 29.3365C18.0818 30.0267 20.0256 30.8435 22.1974 30.9828C22.3303 30.9891 22.4696 30.9954 22.5963 30.9954C24.0589 30.9954 25.2873 30.4699 26.2497 29.4252C26.256 29.4125 26.2687 29.4062 26.275 29.3935C26.6042 28.9946 26.9842 28.6337 27.383 28.2475C27.6553 27.9879 27.9339 27.7156 28.2062 27.4307C28.833 26.7785 29.1623 26.0187 29.1623 25.2399C29.1623 24.4548 28.8267 23.7013 28.1872 23.0681L24.7111 19.5794ZM26.9778 26.2467C26.9715 26.2467 26.9715 26.253 26.9778 26.2467C26.7309 26.5126 26.4776 26.7532 26.2054 27.0191C25.7938 27.4117 25.3759 27.8233 24.9833 28.2855C24.3438 28.9693 23.5904 29.2922 22.6026 29.2922C22.5076 29.2922 22.4063 29.2922 22.3114 29.2859C20.4308 29.1656 18.6833 28.4311 17.3726 27.8043C13.7889 26.0694 10.642 23.6063 8.02703 20.4848C5.86792 17.8825 4.42429 15.4764 3.4682 12.8931C2.87935 11.3165 2.66408 10.0882 2.75905 8.92945C2.82237 8.18864 3.1073 7.57447 3.63283 7.04894L5.79194 4.88982C6.10219 4.59857 6.43144 4.44027 6.75436 4.44027C7.15325 4.44027 7.47617 4.68088 7.67879 4.88349C7.68512 4.88982 7.69145 4.89616 7.69778 4.90249C8.08401 5.2634 8.45125 5.63697 8.83749 6.03586C9.03377 6.23848 9.23638 6.44109 9.439 6.65004L11.1676 8.37859C11.8387 9.04976 11.8387 9.67026 11.1676 10.3414C10.9839 10.525 10.8066 10.7087 10.623 10.8859C10.0912 11.4305 9.58463 11.937 9.03377 12.4309C9.02111 12.4435 9.00844 12.4499 9.00211 12.4625C8.45759 13.0071 8.55889 13.5389 8.67286 13.8998C8.67919 13.9188 8.68553 13.9378 8.69186 13.9568C9.14141 15.0459 9.77458 16.0716 10.737 17.2936L10.7433 17.3C12.4909 19.4527 14.3334 21.1306 16.3659 22.416C16.6255 22.5806 16.8914 22.7136 17.1447 22.8402C17.3726 22.9542 17.5879 23.0618 17.7715 23.1758C17.7968 23.1885 17.8222 23.2074 17.8475 23.2201C18.0628 23.3278 18.2654 23.3784 18.4743 23.3784C18.9999 23.3784 19.3291 23.0492 19.4368 22.9415L21.6022 20.7761C21.8175 20.5608 22.1594 20.3012 22.5583 20.3012C22.9509 20.3012 23.2738 20.5481 23.4701 20.7634C23.4764 20.7697 23.4764 20.7697 23.4827 20.7761L26.9715 24.2648C27.6237 24.9107 27.6237 25.5755 26.9778 26.2467Z" fill="#333333" stroke="#333333" stroke-width="0.2"/>
<path d="M17.2146 8.13318C18.8735 8.41177 20.3804 9.1969 21.5835 10.3999C22.7865 11.603 23.5653 13.1099 23.8502 14.7688C23.9199 15.1867 24.2808 15.478 24.6923 15.478C24.743 15.478 24.7873 15.4716 24.838 15.4653C25.3065 15.3893 25.6168 14.9461 25.5408 14.4775C25.1989 12.4704 24.2491 10.6405 22.7991 9.19057C21.3492 7.74061 19.5193 6.79086 17.5122 6.44894C17.0436 6.37296 16.6067 6.68322 16.5244 7.14543C16.4421 7.60765 16.746 8.0572 17.2146 8.13318Z" fill="#333333" stroke="#333333" stroke-width="0.2"/>
<path d="M30.9681 14.2336C30.4046 10.9285 28.847 7.92092 26.4536 5.52754C24.0602 3.13415 21.0526 1.57655 17.7475 1.01303C17.2853 0.930719 16.8484 1.2473 16.7661 1.70952C16.6901 2.17807 17.0003 2.61495 17.4689 2.69727C20.4195 3.19747 23.1104 4.59678 25.2506 6.73056C27.3907 8.87068 28.7837 11.5617 29.2839 14.5122C29.3535 14.9301 29.7144 15.2214 30.126 15.2214C30.1766 15.2214 30.221 15.215 30.2716 15.2087C30.7338 15.1391 31.0504 14.6958 30.9681 14.2336Z" fill="#333333" stroke="#333333" stroke-width="0.2"/>
</svg>
