<svg width="132" height="43" viewBox="0 0 132 43" fill="none" xmlns="http://www.w3.org/2000/svg">
<path d="M72.2793 20.9933V30.5745C71.9582 31.0539 71.4467 31.5932 70.7449 32.1924C70.0431 32.7796 69.0737 33.2949 67.8366 33.7383C66.6114 34.1698 65.0294 34.3855 63.0905 34.3855C61.5085 34.3855 60.0514 34.1099 58.7192 33.5586C57.3989 32.9953 56.251 32.1804 55.2756 31.1138C54.3121 30.0353 53.5628 28.729 53.0275 27.195C52.5041 25.6491 52.2424 23.8994 52.2424 21.946V19.9147C52.2424 17.9613 52.4684 16.2176 52.9204 14.6836C53.3843 13.1497 54.0623 11.8494 54.9545 10.7828C55.8466 9.70423 56.9409 8.88931 58.2374 8.33804C59.534 7.77479 61.0208 7.49316 62.698 7.49316C64.6845 7.49316 66.3438 7.8407 67.676 8.53578C69.0201 9.21888 70.0669 10.1656 70.8162 11.376C71.5775 12.5864 72.0652 13.9646 72.2793 15.5105H68.8358C68.6811 14.5638 68.3719 13.7009 67.908 12.922C67.456 12.143 66.8077 11.5198 65.9631 11.0524C65.1186 10.5731 64.0302 10.3334 62.698 10.3334C61.4966 10.3334 60.4558 10.5551 59.5756 10.9985C58.6954 11.4419 57.9698 12.0771 57.3989 12.904C56.8279 13.7309 56.3997 14.7316 56.1142 15.906C55.8406 17.0804 55.7038 18.4047 55.7038 19.8787V21.946C55.7038 23.456 55.8763 24.8042 56.2213 25.9906C56.5781 27.177 57.0836 28.1897 57.7379 29.0286C58.3921 29.8555 59.1712 30.4847 60.0752 30.9161C60.9911 31.3475 62.0022 31.5632 63.1084 31.5632C64.3336 31.5632 65.3268 31.4614 66.088 31.2576C66.8493 31.0419 67.4441 30.7903 67.8723 30.5026C68.3005 30.203 68.6276 29.9214 68.8536 29.6578V23.7975H62.8407V20.9933H72.2793Z" fill="#333333"/>
<path d="M77.6156 7.85269H80.9521L89.4629 29.1904L97.9558 7.85269H101.31L90.7475 34.026H88.1425L77.6156 7.85269ZM76.5272 7.85269H79.4712L79.9529 23.8155V34.026H76.5272V7.85269ZM99.4367 7.85269H102.381V34.026H98.955V23.8155L99.4367 7.85269Z" fill="#333333"/>
<path d="M116.228 21.7842H109.644L109.608 18.9979H115.585C116.573 18.9979 117.435 18.8301 118.173 18.4946C118.91 18.159 119.481 17.6797 119.885 17.0565C120.302 16.4213 120.51 15.6663 120.51 14.7915C120.51 13.8328 120.325 13.0538 119.957 12.4546C119.6 11.8434 119.047 11.4 118.297 11.1243C117.56 10.8367 116.62 10.6929 115.478 10.6929H110.411V34.026H106.968V7.85269H115.478C116.811 7.85269 118 7.9905 119.047 8.26614C120.094 8.52979 120.98 8.94923 121.705 9.52447C122.443 10.0877 123.002 10.8068 123.382 11.6816C123.763 12.5564 123.953 13.6051 123.953 14.8274C123.953 15.906 123.68 16.8827 123.133 17.7575C122.586 18.6204 121.824 19.3275 120.849 19.8787C119.885 20.43 118.755 20.7835 117.459 20.9393L116.228 21.7842ZM116.067 34.026H108.288L110.233 31.2037H116.067C117.161 31.2037 118.089 31.012 118.851 30.6285C119.624 30.245 120.212 29.7057 120.617 29.0106C121.021 28.3036 121.224 27.4707 121.224 26.5119C121.224 25.5412 121.051 24.7023 120.706 23.9953C120.361 23.2882 119.82 22.7429 119.082 22.3594C118.345 21.976 117.393 21.7842 116.228 21.7842H111.321L111.357 18.9979H118.065L118.797 20.0046C120.046 20.1124 121.105 20.4719 121.973 21.0831C122.841 21.6823 123.501 22.4493 123.953 23.3841C124.417 24.3188 124.649 25.3495 124.649 26.476C124.649 28.1058 124.292 29.484 123.579 30.6105C122.877 31.725 121.884 32.5759 120.599 33.1631C119.314 33.7383 117.804 34.026 116.067 34.026Z" fill="#333333"/>
<g clip-path="url(#clip0_2_467)">
<path d="M0.191334 19.3877C0.382672 19.1957 0.669682 19.0037 0.86102 18.8117C10.2366 13.9154 19.6121 9.1152 28.8919 4.21896C29.2746 4.02695 29.6573 4.02695 30.04 4.21896C34.1537 6.52307 38.3631 8.73119 42.4769 11.0353C42.8596 11.2273 43.0509 11.5153 43.0509 11.9953C43.0509 15.6435 43.0509 19.1957 43.0509 22.8439C43.0509 23.3239 42.8596 23.6119 42.4769 23.8039C33.2927 28.6041 24.2042 33.4044 15.02 38.2046C14.6373 38.3966 14.2546 38.3966 13.7763 38.2046C9.4712 36.1885 5.07044 34.2684 0.765352 32.2523C0.478346 32.1563 0.287006 31.8683 0 31.6763C0.191337 27.6441 0.191334 23.5159 0.191334 19.3877ZM40.8505 11.8033C40.7549 11.7073 40.6592 11.7073 40.5635 11.6113C36.9281 9.59522 33.3884 7.67513 29.753 5.65903C29.466 5.56302 29.3703 5.56302 29.0833 5.65903C20.3774 10.1712 11.6716 14.6835 2.96573 19.1957C2.87006 19.2917 2.67872 19.3877 2.58305 19.3877C2.77439 19.4837 2.87006 19.5797 3.0614 19.5797C6.69681 21.2118 10.4279 22.8439 14.0633 24.476C14.3503 24.572 14.5416 24.572 14.8286 24.476C22.5778 20.6358 30.327 16.8916 37.9805 13.0514C39.0328 12.7634 39.8938 12.2833 40.8505 11.8033ZM41.7116 13.0514C41.5202 13.1474 41.4246 13.2434 41.2332 13.2434C32.623 17.5636 24.1085 21.9798 15.4983 26.3C15.2113 26.396 15.1157 26.5881 15.1157 26.8761C15.1157 30.0442 15.1157 33.1164 15.1157 36.2845C15.1157 36.3805 15.1157 36.4765 15.1157 36.6685C15.307 36.5725 15.4027 36.5726 15.4983 36.4765C20.4731 33.8844 25.4479 31.2923 30.4226 28.6041C34.0581 26.6841 37.6935 24.764 41.2332 22.9399C41.3289 22.8439 41.5202 22.6519 41.5202 22.5559C41.7115 19.3877 41.7116 16.2195 41.7116 13.0514ZM1.62636 20.7318C1.62636 20.8278 1.62636 20.9238 1.62636 21.0198C1.62636 24.2839 1.62636 27.5481 1.62636 30.9083C1.62636 31.1963 1.8177 31.2923 2.00904 31.3883C5.54878 33.0204 8.99286 34.5564 12.5326 36.1885C12.9153 36.3805 13.3936 36.5725 13.872 36.7645C13.872 36.6685 13.872 36.5726 13.872 36.4765C13.872 33.2124 13.872 30.0442 13.872 26.7801C13.872 26.492 13.6806 26.396 13.4893 26.3C10.3322 24.86 7.07948 23.3239 3.92242 21.8838C3.15707 21.4038 2.39171 21.1158 1.62636 20.7318Z" fill="#333333" stroke="#333333" stroke-width="2"/>
</g>
<defs>
<clipPath id="clip0_2_467">
<rect width="43.0509" height="35.5217" fill="white" transform="translate(0 3.73901)"/>
</clipPath>
</defs>
</svg>
