<svg width="125" height="37" viewBox="0 0 125 37" fill="none" xmlns="http://www.w3.org/2000/svg">
<path d="M72.2793 17.9933V27.5745C71.9582 28.0539 71.4467 28.5932 70.7449 29.1924C70.0431 29.7796 69.0737 30.2949 67.8366 30.7383C66.6114 31.1698 65.0294 31.3855 63.0905 31.3855C61.5085 31.3855 60.0514 31.1099 58.7192 30.5586C57.3989 29.9953 56.251 29.1804 55.2756 28.1138C54.3121 27.0353 53.5628 25.729 53.0275 24.195C52.5041 22.6491 52.2424 20.8994 52.2424 18.946V16.9147C52.2424 14.9613 52.4684 13.2176 52.9204 11.6836C53.3843 10.1497 54.0623 8.84938 54.9545 7.7828C55.8466 6.70423 56.9409 5.88931 58.2374 5.33804C59.534 4.77479 61.0208 4.49316 62.698 4.49316C64.6845 4.49316 66.3438 4.8407 67.676 5.53578C69.0201 6.21888 70.0669 7.16562 70.8162 8.37601C71.5775 9.58641 72.0652 10.9646 72.2793 12.5105H68.8358C68.6811 11.5638 68.3719 10.7009 67.908 9.92196C67.456 9.143 66.8077 8.51982 65.9631 8.05244C65.1186 7.57308 64.0302 7.3334 62.698 7.3334C61.4966 7.3334 60.4558 7.5551 59.5756 7.99851C58.6954 8.44193 57.9698 9.07708 57.3989 9.90399C56.8279 10.7309 56.3997 11.7316 56.1142 12.906C55.8406 14.0804 55.7038 15.4047 55.7038 16.8787V18.946C55.7038 20.456 55.8763 21.8042 56.2213 22.9906C56.5781 24.177 57.0836 25.1897 57.7379 26.0286C58.3921 26.8555 59.1712 27.4847 60.0752 27.9161C60.9911 28.3475 62.0022 28.5632 63.1084 28.5632C64.3336 28.5632 65.3268 28.4614 66.088 28.2576C66.8493 28.0419 67.4441 27.7903 67.8723 27.5026C68.3005 27.203 68.6276 26.9214 68.8536 26.6578V20.7975H62.8407V17.9933H72.2793Z" fill="white"/>
<path d="M77.6156 4.85269H80.9521L89.4629 26.1904L97.9558 4.85269H101.31L90.7475 31.026H88.1425L77.6156 4.85269ZM76.5272 4.85269H79.4712L79.9529 20.8155V31.026H76.5272V4.85269ZM99.4367 4.85269H102.381V31.026H98.955V20.8155L99.4367 4.85269Z" fill="white"/>
<path d="M116.228 18.7842H109.644L109.608 15.9979H115.585C116.573 15.9979 117.435 15.8301 118.173 15.4946C118.91 15.159 119.481 14.6797 119.885 14.0565C120.302 13.4213 120.51 12.6663 120.51 11.7915C120.51 10.8328 120.325 10.0538 119.957 9.45458C119.6 8.84339 119.047 8.39998 118.297 8.12435C117.56 7.83673 116.62 7.69292 115.478 7.69292H110.411V31.026H106.968V4.85269H115.478C116.811 4.85269 118 4.9905 119.047 5.26614C120.094 5.52979 120.98 5.94923 121.705 6.52447C122.443 7.08772 123.002 7.80677 123.382 8.68161C123.763 9.55645 123.953 10.6051 123.953 11.8274C123.953 12.906 123.68 13.8827 123.133 14.7575C122.586 15.6204 121.824 16.3275 120.849 16.8787C119.885 17.43 118.755 17.7835 117.459 17.9393L116.228 18.7842ZM116.067 31.026H108.288L110.233 28.2037H116.067C117.161 28.2037 118.089 28.012 118.851 27.6285C119.624 27.245 120.212 26.7057 120.617 26.0106C121.021 25.3036 121.224 24.4707 121.224 23.5119C121.224 22.5412 121.051 21.7023 120.706 20.9953C120.361 20.2882 119.82 19.7429 119.082 19.3594C118.345 18.976 117.393 18.7842 116.228 18.7842H111.321L111.357 15.9979H118.065L118.797 17.0046C120.046 17.1124 121.105 17.4719 121.973 18.0831C122.841 18.6823 123.501 19.4493 123.953 20.3841C124.417 21.3188 124.649 22.3495 124.649 23.476C124.649 25.1058 124.292 26.484 123.579 27.6105C122.877 28.725 121.884 29.5759 120.599 30.1631C119.314 30.7383 117.804 31.026 116.067 31.026Z" fill="white"/>
<g clip-path="url(#clip0_219_29)">
<path d="M0.191334 16.3877C0.382672 16.1957 0.669682 16.0037 0.86102 15.8117C10.2366 10.9154 19.6121 6.1152 28.8919 1.21896C29.2746 1.02695 29.6573 1.02695 30.04 1.21896C34.1537 3.52307 38.3631 5.73119 42.4769 8.0353C42.8596 8.22731 43.0509 8.51532 43.0509 8.99534C43.0509 12.6435 43.0509 16.1957 43.0509 19.8439C43.0509 20.3239 42.8596 20.6119 42.4769 20.8039C33.2927 25.6041 24.2042 30.4044 15.02 35.2046C14.6373 35.3966 14.2546 35.3966 13.7763 35.2046C9.4712 33.1885 5.07044 31.2684 0.765352 29.2523C0.478346 29.1563 0.287006 28.8683 0 28.6763C0.191337 24.6441 0.191334 20.5159 0.191334 16.3877ZM40.8505 8.80332C40.7549 8.70732 40.6592 8.70732 40.5635 8.61132C36.9281 6.59522 33.3884 4.67513 29.753 2.65903C29.466 2.56302 29.3703 2.56302 29.0833 2.65903C20.3774 7.17125 11.6716 11.6835 2.96573 16.1957C2.87006 16.2917 2.67872 16.3877 2.58305 16.3877C2.77439 16.4837 2.87006 16.5797 3.0614 16.5797C6.69681 18.2118 10.4279 19.8439 14.0633 21.476C14.3503 21.572 14.5416 21.572 14.8286 21.476C22.5778 17.6358 30.327 13.8916 37.9805 10.0514C39.0328 9.76337 39.8938 9.28335 40.8505 8.80332ZM41.7116 10.0514C41.5202 10.1474 41.4246 10.2434 41.2332 10.2434C32.623 14.5636 24.1085 18.9798 15.4983 23.3C15.2113 23.396 15.1157 23.5881 15.1157 23.8761C15.1157 27.0442 15.1157 30.1164 15.1157 33.2845C15.1157 33.3805 15.1157 33.4765 15.1157 33.6685C15.307 33.5725 15.4027 33.5726 15.4983 33.4765C20.4731 30.8844 25.4479 28.2923 30.4226 25.6041C34.0581 23.6841 37.6935 21.764 41.2332 19.9399C41.3289 19.8439 41.5202 19.6519 41.5202 19.5559C41.7115 16.3877 41.7116 13.2195 41.7116 10.0514ZM1.62636 17.7318C1.62636 17.8278 1.62636 17.9238 1.62636 18.0198C1.62636 21.2839 1.62636 24.5481 1.62636 27.9083C1.62636 28.1963 1.8177 28.2923 2.00904 28.3883C5.54878 30.0204 8.99286 31.5564 12.5326 33.1885C12.9153 33.3805 13.3936 33.5725 13.872 33.7645C13.872 33.6685 13.872 33.5726 13.872 33.4765C13.872 30.2124 13.872 27.0442 13.872 23.7801C13.872 23.492 13.6806 23.396 13.4893 23.3C10.3322 21.86 7.07948 20.3239 3.92242 18.8838C3.15707 18.4038 2.39171 18.1158 1.62636 17.7318Z" fill="white" stroke="white" stroke-width="2"/>
</g>
<defs>
<clipPath id="clip0_219_29">
<rect width="43.0509" height="35.5217" fill="white" transform="translate(0 0.739014)"/>
</clipPath>
</defs>
</svg>
